<?xml version="1.0" encoding="utf-8"?>
<!-- Generator: Adobe Illustrator 23.0.0, SVG Export Plug-In . SVG Version: 6.00 Build 0)  -->
<svg version="1.1" id="相册" xmlns="http://www.w3.org/2000/svg" xmlns:xlink="http://www.w3.org/1999/xlink" x="0px" y="0px"
	 viewBox="0 0 1024 1024" style="enable-background:new 0 0 1024 1024;" xml:space="preserve">
<style type="text/css">
	.st0{fill:url(#SVGID_1_);}
	.st1{fill:#54AFD3;}
	.st2{fill:#30854F;}
	.st3{fill:#42B363;}
	.st4{fill:#FFFFFF;}
	.st5{fill:#64C3E8;}
	.st6{fill:#38A053;}
	.st7{fill:#73D1FF;}
</style>
<linearGradient id="SVGID_1_" gradientUnits="userSpaceOnUse" x1="512" y1="47" x2="512" y2="977">
	<stop  offset="0" style="stop-color:#A5CEFF"/>
	<stop  offset="1" style="stop-color:#E2F0FF"/>
</linearGradient>
<circle class="st0" cx="512" cy="512" r="465"/>
<g>
	<path class="st1" d="M852.65,439.13l-295.2-116.84c-16.63-6.58-24.85-25.57-18.27-42.2L641.13,22.54
		c6.58-16.63,25.57-24.85,42.2-18.27l295.2,116.84c16.63,6.58,24.85,25.57,18.27,42.2L894.85,420.87
		C888.26,437.5,869.27,445.72,852.65,439.13z"/>
	<path class="st2" d="M797.37,252.51c17.06,35.66,20.04,76.91,4.89,115.19c-6.17,15.58-14.86,29.45-25.48,41.41l87.93,34.8
		c9.99,3.96,21.41-0.98,25.37-10.98l45.71-115.49c-14.8-24.45-37.97-44.78-67.37-56.42C844.83,251.69,820.34,249.17,797.37,252.51z"
		/>
	<path class="st3" d="M797.37,252.51c-16.9-35.33-47.62-65.19-88.22-81.26c-43.53-17.23-89.63-15.13-127.74,2.15l-47,118.75
		c-3.96,9.99,0.98,21.41,10.98,25.37l146.54,58l84.86,33.59c10.62-11.95,19.32-25.83,25.48-41.41
		C817.41,329.42,814.43,288.18,797.37,252.51z"/>
	<circle class="st4" cx="895.51" cy="173.84" r="46.07"/>
</g>
<g>
	<path class="st5" d="M636.49,579.92l-445.1,138.44c-17.08,5.31-35.39-4.31-40.71-21.39L28.94,305.55
		c-5.31-17.08,4.31-35.39,21.39-40.71l445.1-138.44c17.08-5.31,35.39,4.31,40.71,21.39l121.74,391.42
		C663.2,556.29,653.57,574.61,636.49,579.92z"/>
	<path class="st2" d="M402.03,430.09c49.52,23.69,88.69,65.68,105.67,120.27c6.91,22.21,9.6,44.79,8.53,66.97l125.39-39
		c14.25-4.43,22.29-19.72,17.85-33.98l-51.23-164.7c-37.31-13.54-80.07-15.32-122-2.28C452.62,387.83,423.95,406.45,402.03,430.09z"
		/>
	<path class="st6" d="M402.03,430.09c-49.06-23.47-108.29-28.98-166.2-10.97c-62.08,19.31-110.08,61.75-136.23,113.65l52.67,169.34
		c4.43,14.25,19.72,22.29,33.98,17.85l208.97-65l121.01-37.64c1.07-22.18-1.63-44.76-8.53-66.97
		C490.72,495.77,451.56,453.78,402.03,430.09z"/>
	<circle class="st4" cx="439.57" cy="259.5" r="63.97"/>
</g>
<g>
	<path class="st7" d="M798.68,855.32H227.32c-17.88,0-32.52-14.63-32.52-32.52v-504c0-17.88,14.63-32.52,32.52-32.52h571.35
		c17.88,0,32.52,14.63,32.52,32.52v504C831.19,840.69,816.56,855.32,798.68,855.32z"/>
	<path class="st2" d="M577.32,600.48c48.23,44.72,78.1,106.7,78.1,175.19c0,27.87-4.95,54.66-14.07,79.65h157.32
		c17.88,0,32.52-14.63,32.52-32.52V616.16c-37.86-28.77-86.15-46.02-138.76-46.02C650.23,570.14,610.81,581.24,577.32,600.48z"/>
	<path class="st3" d="M577.32,600.48c-47.78-44.31-113.58-71.69-186.23-71.69c-77.89,0-147.91,31.47-196.29,81.54v212.48
		c0,17.88,14.63,32.52,32.52,32.52h262.2h151.83c9.12-24.99,14.07-51.78,14.07-79.65C655.42,707.18,625.55,645.2,577.32,600.48z"/>
	<circle class="st4" cx="680.97" cy="418.68" r="76.65"/>
</g>
</svg>
