<?xml version="1.0" encoding="utf-8"?>
<!-- Generator: Adobe Illustrator 23.0.0, SVG Export Plug-In . SVG Version: 6.00 Build 0)  -->
<svg version="1.1" id="图层_1" xmlns="http://www.w3.org/2000/svg" xmlns:xlink="http://www.w3.org/1999/xlink" x="0px"
	y="0px" viewBox="0 0 1024 1024" style="enable-background:new 0 0 1024 1024;" xml:space="preserve">
	<style type="text/css">
		.st0 {
			fill: url(#SVGID_1_);
		}

		.st1 {
			clip-path: url(#SVGID_3_);
		}

		.st2 {
			fill: #B32D08;
		}

		.st3 {
			fill: #D9370A;
		}

		.st4 {
			clip-path: url(#SVGID_5_);
			fill: #B32D06;
		}

		.st5 {
			fill: #FFFFFF;
		}

		.st6 {
			fill: #F24919;
		}
	</style>
	<linearGradient id="SVGID_1_" gradientUnits="userSpaceOnUse" x1="512" y1="47" x2="512" y2="977">
		<stop offset="0" style="stop-color:#F9BD9F" />
		<stop offset="1" style="stop-color:#FCDECF" />
	</linearGradient>
	<circle class="st0" cx="512" cy="512" r="465" />
	<g>
		<defs>
			<circle id="SVGID_2_" cx="512" cy="512" r="465" />
		</defs>
		<clipPath id="SVGID_3_">
			<use xlink:href="#SVGID_2_" style="overflow:visible;" />
		</clipPath>
		<g class="st1">
			<path class="st2"
				d="M293.32,262.65v-53c0-42.97,34.84-77.81,77.81-77.81h299.61c42.97,0,77.81,34.84,77.81,77.81v53" />
			<path class="st3" d="M899.52,518.55V131.84H352.55c54.52,0,98.71,44.19,98.71,98.71v288c0,54.52-44.19,98.71-98.71,98.71h-59.23
			l382.06,382.06l382.06-382.06h-59.23C943.71,617.26,899.52,573.06,899.52,518.55z" />
			<g>
				<defs>
					<path id="SVGID_4_" d="M899.52,518.55V131.84H352.55c54.52,0,98.71,44.19,98.71,98.71v288c0,54.52-44.19,98.71-98.71,98.71
					h-59.23l382.06,382.06l382.06-382.06h-59.23C943.71,617.26,899.52,573.06,899.52,518.55z" />
				</defs>
				<clipPath id="SVGID_5_">
					<use xlink:href="#SVGID_4_" style="overflow:visible;" />
				</clipPath>
				<rect x="675.39" y="14.71" class="st4" width="519.1" height="1087.97" />
			</g>
			<circle class="st5" cx="675.39" cy="765.32" r="64.45" />
			<g>
				<path class="st5" d="M504.17,404.85h29.85c6.73,0,11.86,0.77,15.39,2.31c4.75,2.09,8.81,5.8,12.19,11.14
				c3.38,5.33,5.96,11.87,7.72,19.59c1.77,7.73,2.65,17.26,2.65,28.58c0,9.95-0.83,18.53-2.48,25.74
				c-2.02,8.8-4.91,15.92-8.66,21.37c-2.83,4.13-6.66,7.34-11.47,9.65c-3.61,1.71-8.42,2.56-14.45,2.56h-30.73V404.85z
				 M520.49,425.31v80.1h12.19c4.56,0,7.85-0.38,9.88-1.15c2.65-0.99,4.85-2.67,6.59-5.03c1.75-2.36,3.17-6.26,4.28-11.67
				c1.1-5.42,1.66-12.8,1.66-22.15c0-9.35-0.55-16.53-1.66-21.53c-1.1-5-2.65-8.91-4.63-11.71c-1.99-2.81-4.51-4.7-7.56-5.69
				c-2.28-0.77-6.75-1.15-13.41-1.15H520.49z" />
				<path class="st5" d="M582.5,466.06c0-12.32,1.23-22.66,3.7-31.02c1.84-6.16,4.35-11.69,7.53-16.58
				c3.18-4.89,6.67-8.52,10.45-10.89c5.04-3.19,10.85-4.78,17.43-4.78c11.92,0,21.45,5.53,28.6,16.58
				c7.15,11.05,10.73,26.43,10.73,46.11c0,19.52-3.55,34.8-10.65,45.83c-7.1,11.03-16.59,16.54-28.47,16.54
				c-12.03,0-21.59-5.49-28.69-16.46C586.05,500.42,582.5,485.31,582.5,466.06z M599.33,465.23c0,13.69,2.11,24.08,6.34,31.14
				c4.23,7.07,9.6,10.6,16.11,10.6s11.85-3.51,16.03-10.52c4.17-7.01,6.26-17.53,6.26-31.55c0-13.86-2.03-24.2-6.1-31.02
				c-4.06-6.82-9.46-10.23-16.19-10.23s-12.16,3.45-16.27,10.35C601.39,440.91,599.33,451.32,599.33,465.23z" />
				<path class="st5" d="M685.17,525.79l-19.31-120.94h16.72l12.19,83.07l14.79-83.07h19.42l14.18,84.47l12.41-84.47H772
				l-19.64,120.94h-17.32l-16.11-90.41l-16.05,90.41H685.17z" />
				<path class="st5"
					d="M780.5,525.79V404.85h15.89l33.1,80.76v-80.76h15.17v120.94h-16.38l-32.6-78.86v78.86H780.5z" />
			</g>
		</g>
	</g>
	<polygon class="st6"
		points="906.99,195.17 906.99,61.9 778.46,61.9 778.46,195.17 714.84,195.17 842.73,323.06 970.61,195.17 " />
</svg>